<mxfile host="app.diagrams.net" modified="2023-10-11T06:24:39.335Z" agent="Mozilla/5.0 (Windows NT 10.0; Win64; x64) AppleWebKit/537.36 (KHTML, like Gecko) Chrome/117.0.0.0 Safari/537.36 Edg/117.0.2045.60" etag="1aRvrr3GMmjZtMsRs7OX" version="22.0.4" type="github">
  <diagram id="R2lEEEUBdFMjLlhIrx00" name="Page-1">
    <mxGraphModel dx="797" dy="428" grid="1" gridSize="10" guides="1" tooltips="1" connect="1" arrows="1" fold="1" page="1" pageScale="1" pageWidth="850" pageHeight="1100" math="0" shadow="0" extFonts="Permanent Marker^https://fonts.googleapis.com/css?family=Permanent+Marker">
      <root>
        <mxCell id="0" />
        <mxCell id="1" parent="0" />
        <mxCell id="EG4Lli9VcJeLzfS9NVoA-1" value="Company" style="rounded=0;whiteSpace=wrap;html=1;" vertex="1" parent="1">
          <mxGeometry x="210" y="190" width="120" height="60" as="geometry" />
        </mxCell>
        <mxCell id="EG4Lli9VcJeLzfS9NVoA-2" value="Department" style="rounded=0;whiteSpace=wrap;html=1;" vertex="1" parent="1">
          <mxGeometry x="510" y="190" width="120" height="60" as="geometry" />
        </mxCell>
        <mxCell id="EG4Lli9VcJeLzfS9NVoA-3" value="" style="endArrow=none;html=1;rounded=0;exitX=1;exitY=0.5;exitDx=0;exitDy=0;entryX=0;entryY=0.5;entryDx=0;entryDy=0;" edge="1" parent="1" source="EG4Lli9VcJeLzfS9NVoA-1" target="EG4Lli9VcJeLzfS9NVoA-2">
          <mxGeometry width="50" height="50" relative="1" as="geometry">
            <mxPoint x="400" y="300" as="sourcePoint" />
            <mxPoint x="450" y="250" as="targetPoint" />
          </mxGeometry>
        </mxCell>
        <mxCell id="EG4Lli9VcJeLzfS9NVoA-4" value="4..4" style="text;html=1;align=center;verticalAlign=middle;resizable=0;points=[];autosize=1;strokeColor=none;fillColor=none;" vertex="1" parent="1">
          <mxGeometry x="455" y="230" width="40" height="30" as="geometry" />
        </mxCell>
        <mxCell id="EG4Lli9VcJeLzfS9NVoA-5" value="1..1" style="text;html=1;align=center;verticalAlign=middle;resizable=0;points=[];autosize=1;strokeColor=none;fillColor=none;" vertex="1" parent="1">
          <mxGeometry x="345" y="230" width="40" height="30" as="geometry" />
        </mxCell>
        <mxCell id="EG4Lli9VcJeLzfS9NVoA-6" value="Operates" style="text;html=1;strokeColor=none;fillColor=none;align=center;verticalAlign=middle;whiteSpace=wrap;rounded=0;" vertex="1" parent="1">
          <mxGeometry x="395" y="190" width="60" height="30" as="geometry" />
        </mxCell>
        <mxCell id="EG4Lli9VcJeLzfS9NVoA-7" value="" style="html=1;verticalLabelPosition=bottom;align=center;labelBackgroundColor=#ffffff;verticalAlign=top;strokeWidth=2;strokeColor=#000;shadow=0;dashed=0;shape=mxgraph.ios7.icons.play;" vertex="1" parent="1">
          <mxGeometry x="385" y="201.5" width="6" height="7" as="geometry" />
        </mxCell>
        <mxCell id="EG4Lli9VcJeLzfS9NVoA-8" value="&lt;div style=&quot;&quot;&gt;&lt;span style=&quot;background-color: initial;&quot;&gt;Each company operates four departments,&lt;/span&gt;&lt;/div&gt;&lt;div style=&quot;&quot;&gt;&lt;span style=&quot;background-color: initial;&quot;&gt;each department belongs to one company.&lt;/span&gt;&lt;/div&gt;" style="text;html=1;align=left;verticalAlign=middle;resizable=0;points=[];autosize=1;strokeColor=none;fillColor=none;" vertex="1" parent="1">
          <mxGeometry x="210" y="130" width="250" height="40" as="geometry" />
        </mxCell>
        <mxCell id="EG4Lli9VcJeLzfS9NVoA-9" value="Department" style="rounded=0;whiteSpace=wrap;html=1;" vertex="1" parent="1">
          <mxGeometry x="210" y="370" width="120" height="60" as="geometry" />
        </mxCell>
        <mxCell id="EG4Lli9VcJeLzfS9NVoA-10" value="Employee" style="rounded=0;whiteSpace=wrap;html=1;" vertex="1" parent="1">
          <mxGeometry x="510" y="370" width="120" height="60" as="geometry" />
        </mxCell>
        <mxCell id="EG4Lli9VcJeLzfS9NVoA-11" value="" style="endArrow=none;html=1;rounded=0;exitX=1;exitY=0.5;exitDx=0;exitDy=0;entryX=0;entryY=0.5;entryDx=0;entryDy=0;" edge="1" parent="1" source="EG4Lli9VcJeLzfS9NVoA-9" target="EG4Lli9VcJeLzfS9NVoA-10">
          <mxGeometry width="50" height="50" relative="1" as="geometry">
            <mxPoint x="400" y="480" as="sourcePoint" />
            <mxPoint x="450" y="430" as="targetPoint" />
          </mxGeometry>
        </mxCell>
        <mxCell id="EG4Lli9VcJeLzfS9NVoA-12" value="1..*" style="text;html=1;align=center;verticalAlign=middle;resizable=0;points=[];autosize=1;strokeColor=none;fillColor=none;" vertex="1" parent="1">
          <mxGeometry x="455" y="410" width="40" height="30" as="geometry" />
        </mxCell>
        <mxCell id="EG4Lli9VcJeLzfS9NVoA-13" value="1..1" style="text;html=1;align=center;verticalAlign=middle;resizable=0;points=[];autosize=1;strokeColor=none;fillColor=none;" vertex="1" parent="1">
          <mxGeometry x="345" y="410" width="40" height="30" as="geometry" />
        </mxCell>
        <mxCell id="EG4Lli9VcJeLzfS9NVoA-14" value="employs" style="text;html=1;strokeColor=none;fillColor=none;align=center;verticalAlign=middle;whiteSpace=wrap;rounded=0;" vertex="1" parent="1">
          <mxGeometry x="395" y="370" width="60" height="30" as="geometry" />
        </mxCell>
        <mxCell id="EG4Lli9VcJeLzfS9NVoA-15" value="" style="html=1;verticalLabelPosition=bottom;align=center;labelBackgroundColor=#ffffff;verticalAlign=top;strokeWidth=2;strokeColor=#000;shadow=0;dashed=0;shape=mxgraph.ios7.icons.play;" vertex="1" parent="1">
          <mxGeometry x="385" y="381.5" width="6" height="7" as="geometry" />
        </mxCell>
        <mxCell id="EG4Lli9VcJeLzfS9NVoA-16" value="Each department in part 2.1. employs one or more employees,&lt;br&gt;each employee works for one department." style="text;html=1;align=left;verticalAlign=middle;resizable=0;points=[];autosize=1;strokeColor=none;fillColor=none;" vertex="1" parent="1">
          <mxGeometry x="210" y="320" width="360" height="40" as="geometry" />
        </mxCell>
        <mxCell id="EG4Lli9VcJeLzfS9NVoA-17" value="Employee" style="rounded=0;whiteSpace=wrap;html=1;" vertex="1" parent="1">
          <mxGeometry x="210" y="535" width="120" height="60" as="geometry" />
        </mxCell>
        <mxCell id="EG4Lli9VcJeLzfS9NVoA-18" value="Device" style="rounded=0;whiteSpace=wrap;html=1;" vertex="1" parent="1">
          <mxGeometry x="510" y="535" width="120" height="60" as="geometry" />
        </mxCell>
        <mxCell id="EG4Lli9VcJeLzfS9NVoA-19" value="" style="endArrow=none;html=1;rounded=0;exitX=1;exitY=0.5;exitDx=0;exitDy=0;entryX=0;entryY=0.5;entryDx=0;entryDy=0;" edge="1" parent="1" source="EG4Lli9VcJeLzfS9NVoA-17" target="EG4Lli9VcJeLzfS9NVoA-18">
          <mxGeometry width="50" height="50" relative="1" as="geometry">
            <mxPoint x="400" y="645" as="sourcePoint" />
            <mxPoint x="450" y="595" as="targetPoint" />
          </mxGeometry>
        </mxCell>
        <mxCell id="EG4Lli9VcJeLzfS9NVoA-20" value="0..*" style="text;html=1;align=center;verticalAlign=middle;resizable=0;points=[];autosize=1;strokeColor=none;fillColor=none;" vertex="1" parent="1">
          <mxGeometry x="455" y="575" width="40" height="30" as="geometry" />
        </mxCell>
        <mxCell id="EG4Lli9VcJeLzfS9NVoA-21" value="0..1" style="text;html=1;align=center;verticalAlign=middle;resizable=0;points=[];autosize=1;strokeColor=none;fillColor=none;" vertex="1" parent="1">
          <mxGeometry x="345" y="575" width="40" height="30" as="geometry" />
        </mxCell>
        <mxCell id="EG4Lli9VcJeLzfS9NVoA-22" value="allocated" style="text;html=1;strokeColor=none;fillColor=none;align=center;verticalAlign=middle;whiteSpace=wrap;rounded=0;" vertex="1" parent="1">
          <mxGeometry x="395" y="535" width="60" height="30" as="geometry" />
        </mxCell>
        <mxCell id="EG4Lli9VcJeLzfS9NVoA-23" value="" style="html=1;verticalLabelPosition=bottom;align=center;labelBackgroundColor=#ffffff;verticalAlign=top;strokeWidth=2;strokeColor=#000;shadow=0;dashed=0;shape=mxgraph.ios7.icons.play;" vertex="1" parent="1">
          <mxGeometry x="385" y="546.5" width="6" height="7" as="geometry" />
        </mxCell>
        <mxCell id="EG4Lli9VcJeLzfS9NVoA-24" value="Each of the employees in part 2.2. may or may not be allocated one or more devices,&lt;br&gt;each device may or may notbe allocated to an employee." style="text;html=1;align=left;verticalAlign=middle;resizable=0;points=[];autosize=1;strokeColor=none;fillColor=none;" vertex="1" parent="1">
          <mxGeometry x="210" y="480" width="480" height="40" as="geometry" />
        </mxCell>
        <mxCell id="EG4Lli9VcJeLzfS9NVoA-26" value="Employee" style="rounded=0;whiteSpace=wrap;html=1;" vertex="1" parent="1">
          <mxGeometry x="210" y="695" width="120" height="60" as="geometry" />
        </mxCell>
        <mxCell id="EG4Lli9VcJeLzfS9NVoA-27" value="Employment History events" style="rounded=0;whiteSpace=wrap;html=1;" vertex="1" parent="1">
          <mxGeometry x="510" y="695" width="120" height="60" as="geometry" />
        </mxCell>
        <mxCell id="EG4Lli9VcJeLzfS9NVoA-28" value="" style="endArrow=none;html=1;rounded=0;exitX=1;exitY=0.5;exitDx=0;exitDy=0;entryX=0;entryY=0.5;entryDx=0;entryDy=0;" edge="1" parent="1" source="EG4Lli9VcJeLzfS9NVoA-26" target="EG4Lli9VcJeLzfS9NVoA-27">
          <mxGeometry width="50" height="50" relative="1" as="geometry">
            <mxPoint x="400" y="805" as="sourcePoint" />
            <mxPoint x="450" y="755" as="targetPoint" />
          </mxGeometry>
        </mxCell>
        <mxCell id="EG4Lli9VcJeLzfS9NVoA-29" value="0..*" style="text;html=1;align=center;verticalAlign=middle;resizable=0;points=[];autosize=1;strokeColor=none;fillColor=none;" vertex="1" parent="1">
          <mxGeometry x="455" y="735" width="40" height="30" as="geometry" />
        </mxCell>
        <mxCell id="EG4Lli9VcJeLzfS9NVoA-30" value="0..1" style="text;html=1;align=center;verticalAlign=middle;resizable=0;points=[];autosize=1;strokeColor=none;fillColor=none;" vertex="1" parent="1">
          <mxGeometry x="345" y="735" width="40" height="30" as="geometry" />
        </mxCell>
        <mxCell id="EG4Lli9VcJeLzfS9NVoA-31" value="have" style="text;html=1;strokeColor=none;fillColor=none;align=center;verticalAlign=middle;whiteSpace=wrap;rounded=0;" vertex="1" parent="1">
          <mxGeometry x="395" y="695" width="60" height="30" as="geometry" />
        </mxCell>
        <mxCell id="EG4Lli9VcJeLzfS9NVoA-32" value="" style="html=1;verticalLabelPosition=bottom;align=center;labelBackgroundColor=#ffffff;verticalAlign=top;strokeWidth=2;strokeColor=#000;shadow=0;dashed=0;shape=mxgraph.ios7.icons.play;" vertex="1" parent="1">
          <mxGeometry x="385" y="706.5" width="6" height="7" as="geometry" />
        </mxCell>
        <mxCell id="EG4Lli9VcJeLzfS9NVoA-33" value="Each employee in part 2.3. may or may not have employment history events.&amp;nbsp;" style="text;html=1;align=left;verticalAlign=middle;resizable=0;points=[];autosize=1;strokeColor=none;fillColor=none;" vertex="1" parent="1">
          <mxGeometry x="210" y="645" width="430" height="30" as="geometry" />
        </mxCell>
        <mxCell id="EG4Lli9VcJeLzfS9NVoA-34" value="Employee" style="rounded=0;whiteSpace=wrap;html=1;" vertex="1" parent="1">
          <mxGeometry x="210" y="850" width="120" height="60" as="geometry" />
        </mxCell>
        <mxCell id="EG4Lli9VcJeLzfS9NVoA-35" value="Employment History events" style="rounded=0;whiteSpace=wrap;html=1;" vertex="1" parent="1">
          <mxGeometry x="510" y="850" width="120" height="60" as="geometry" />
        </mxCell>
        <mxCell id="EG4Lli9VcJeLzfS9NVoA-36" value="" style="endArrow=none;html=1;rounded=0;exitX=1;exitY=0.5;exitDx=0;exitDy=0;entryX=0;entryY=0.5;entryDx=0;entryDy=0;" edge="1" parent="1" source="EG4Lli9VcJeLzfS9NVoA-34" target="EG4Lli9VcJeLzfS9NVoA-35">
          <mxGeometry width="50" height="50" relative="1" as="geometry">
            <mxPoint x="400" y="960" as="sourcePoint" />
            <mxPoint x="450" y="910" as="targetPoint" />
          </mxGeometry>
        </mxCell>
        <mxCell id="EG4Lli9VcJeLzfS9NVoA-37" value="0..*" style="text;html=1;align=center;verticalAlign=middle;resizable=0;points=[];autosize=1;strokeColor=none;fillColor=none;" vertex="1" parent="1">
          <mxGeometry x="455" y="890" width="40" height="30" as="geometry" />
        </mxCell>
        <mxCell id="EG4Lli9VcJeLzfS9NVoA-38" value="0..1" style="text;html=1;align=center;verticalAlign=middle;resizable=0;points=[];autosize=1;strokeColor=none;fillColor=none;" vertex="1" parent="1">
          <mxGeometry x="345" y="890" width="40" height="30" as="geometry" />
        </mxCell>
        <mxCell id="EG4Lli9VcJeLzfS9NVoA-39" value="have" style="text;html=1;strokeColor=none;fillColor=none;align=center;verticalAlign=middle;whiteSpace=wrap;rounded=0;" vertex="1" parent="1">
          <mxGeometry x="395" y="850" width="60" height="30" as="geometry" />
        </mxCell>
        <mxCell id="EG4Lli9VcJeLzfS9NVoA-40" value="" style="html=1;verticalLabelPosition=bottom;align=center;labelBackgroundColor=#ffffff;verticalAlign=top;strokeWidth=2;strokeColor=#000;shadow=0;dashed=0;shape=mxgraph.ios7.icons.play;" vertex="1" parent="1">
          <mxGeometry x="385" y="861.5" width="6" height="7" as="geometry" />
        </mxCell>
        <mxCell id="EG4Lli9VcJeLzfS9NVoA-41" value="Each employee in part 2.3. may or may not have employment history events.&amp;nbsp;" style="text;html=1;align=left;verticalAlign=middle;resizable=0;points=[];autosize=1;strokeColor=none;fillColor=none;" vertex="1" parent="1">
          <mxGeometry x="210" y="800" width="430" height="30" as="geometry" />
        </mxCell>
      </root>
    </mxGraphModel>
  </diagram>
</mxfile>
